<svg width="32" height="32" viewBox="0 0 32 32" xmlns="http://www.w3.org/2000/svg">

  <polygon points="16,2 28,9 28,23 16,30 4,23 4,9"
           fill="#534AB7" opacity="0.15"/>

  <polygon points="16,2 28,9 28,23 16,30 4,23 4,9"
           fill="none" stroke="#534AB7" stroke-width="1.5"/>

  <polygon points="16,6 24,11 24,21 16,26 8,21 8,11"
           fill="none" stroke="#1D9E75" stroke-width="0.8" opacity="0.5"/>

  <polygon points="16,9 23,12.5 16,16 9,12.5"
           fill="#534AB7"/>

  <polygon points="16,9 23,12.5 16,16 9,12.5"
           fill="none" stroke="#3C3489" stroke-width="0.6" opacity="0.6"/>

  <line x1="16" y1="16" x2="16" y2="22"
        stroke="#534AB7" stroke-width="1.8" stroke-linecap="round"/>

  <line x1="16" y1="22" x2="11" y2="24.5"
        stroke="#534AB7" stroke-width="1.4" stroke-linecap="round"/>

  <line x1="16" y1="22" x2="21" y2="24.5"
        stroke="#534AB7" stroke-width="1.4" stroke-linecap="round"/>

  <line x1="22" y1="12.5" x2="25" y2="17"
        stroke="#EF9F27" stroke-width="1.4" stroke-linecap="round"/>

  <circle cx="25" cy="18.5" r="1.8" fill="#EF9F27"/>

  <circle cx="4"  cy="23" r="1.2" fill="#EF9F27" opacity="0.7"/>
  <circle cx="16" cy="30" r="1.2" fill="#1D9E75" opacity="0.7"/>
  <circle cx="28" cy="23" r="1.2" fill="#534AB7" opacity="0.7"/>

</svg>
